<?xml version='1.0' encoding='utf-8'?>
<!-- Generator: Adobe Illustrator 23.1.0, SVG Export Plug-In . SVG Version: 6.00 Build 0)  -->
<svg xmlns="http://www.w3.org/2000/svg" xml:space="preserve" style="enable-background:new 0 0 512 512;" id="Слой_1" y="0px" xmlns:xlink="http://www.w3.org/1999/xlink" viewBox="0 0 512 512" version="1.1" x="0px">
 <style type="text/css">&#xd;
	.st0{fill:#004C83;}&#xd;
	.st1{display:none;}&#xd;
	.st2{display:inline;fill:#FFFFFF;}&#xd;
	.st3{display:inline;fill:none;stroke:#FFFFFF;stroke-width:13;stroke-miterlimit:10;}&#xd;
	.st4{display:inline;fill:none;stroke:#FFFFFF;stroke-width:8;stroke-miterlimit:10;}&#xd;
	.st5{display:inline;}&#xd;
	.st6{fill:none;stroke:#FFFFFF;stroke-width:30;stroke-miterlimit:10;}&#xd;
	.st7{fill:#FFFFFF;}&#xd;
	.st8{display:inline;fill:none;stroke:#FFFFFF;stroke-width:19;stroke-miterlimit:10;}&#xd;
	.st9{fill:none;stroke:#FFFFFF;stroke-width:19;stroke-miterlimit:10;}&#xd;
	.st10{display:inline;fill:none;stroke:#FFFFFF;stroke-width:30;stroke-miterlimit:10;}&#xd;
</style>
 <rect height="512" class="st0" y="0" width="512"/>
 <g class="st1" id="дом">
  <path d="M121.53,438.5H110.3c-5.97,0-10.86-4.88-10.86-10.86V195.81c0-5.97,4.88-10.86,10.86-10.86h11.24&#xd;&#xa;&#x9;&#x9;c5.97,0,10.86,4.88,10.86,10.86v231.83C132.39,433.61,127.5,438.5,121.53,438.5z" class="st2"/>
  <path d="M410.84,438.5H399.6c-5.97,0-10.86-4.88-10.86-10.86V195.81c0-5.97,4.88-10.86,10.86-10.86h11.24&#xd;&#xa;&#x9;&#x9;c5.97,0,10.86,4.88,10.86,10.86v231.83C421.7,433.61,416.81,438.5,410.84,438.5z" class="st2"/>
  <path d="M209.91,438.5h-99.26c-6.17,0-11.22-5.05-11.22-11.22v-17.45c0-6.17,5.05-11.22,11.22-11.22h99.26&#xd;&#xa;&#x9;&#x9;c6.17,0,11.22,5.05,11.22,11.22v17.45C221.13,433.45,216.08,438.5,209.91,438.5z" class="st2"/>
  <path d="M410.48,438.5h-99.26c-6.17,0-11.22-5.05-11.22-11.22v-17.45c0-6.17,5.05-11.22,11.22-11.22h99.26&#xd;&#xa;&#x9;&#x9;c6.17,0,11.22,5.05,11.22,11.22v17.45C421.7,433.45,416.65,438.5,410.48,438.5z" class="st2"/>
  <path d="M75.84,227.63l-7.03-8.52c-3.83-4.65-3.17-11.58,1.48-15.42L251.25,54.44c4.65-3.83,11.58-3.17,15.42,1.48&#xd;&#xa;&#x9;&#x9;l7.03,8.52c3.83,4.65,3.17,11.58-1.48,15.42L91.26,229.11C86.61,232.94,79.67,232.27,75.84,227.63z" class="st2"/>
  <path d="M447.22,227.88l7.01-8.5c3.84-4.65,3.17-11.6-1.48-15.44L271.43,54.4c-4.65-3.84-11.6-3.17-15.43,1.48&#xd;&#xa;&#x9;&#x9;l-7.01,8.5c-3.84,4.65-3.17,11.6,1.48,15.43l181.32,149.54C436.44,233.2,443.38,232.53,447.22,227.88z" class="st2"/>
  <path d="M292.7,438.5h-64.26c-6.6,0-12-5.4-12-12V257.98c0-6.6,5.4-12,12-12h64.26c6.6,0,12,5.4,12,12V426.5&#xd;&#xa;&#x9;&#x9;C304.7,433.1,299.3,438.5,292.7,438.5z" class="st3"/>
  <path d="M380.26,167.92h-13.48c-4.67,0-8.49-3.82-8.49-8.49V66.47c0-4.67,3.82-8.49,8.49-8.49h13.48&#xd;&#xa;&#x9;&#x9;c4.67,0,8.49,3.82,8.49,8.49v92.96C388.75,164.11,384.93,167.92,380.26,167.92z" class="st4"/>
 </g>
 <g class="st1" id="отсюда">
  <path d="M54.88,463.69l-2.77-2.77c-5.93-5.93-5.93-15.53,0-21.46l160.61-160.61c5.93-5.93,15.53-5.93,21.46,0&#xd;&#xa;&#x9;&#x9;l2.77,2.77c5.93,5.93,5.93,15.53,0,21.46L76.33,463.69C70.41,469.62,60.8,469.62,54.88,463.69z" class="st2"/>
  <path d="M71.03,468.11H57.24c-5.29,0-9.58-4.29-9.58-9.58l0-90.71c0-5.29,4.29-9.58,9.58-9.58h13.79&#xd;&#xa;&#x9;&#x9;c5.29,0,9.58,4.29,9.58,9.58v90.71C80.61,463.82,76.32,468.11,71.03,468.11z" class="st2"/>
  <path d="M157.54,444.75v13.79c0,5.29-4.29,9.58-9.58,9.58H57.24c-5.29,0-9.58-4.29-9.58-9.58v-13.79&#xd;&#xa;&#x9;&#x9;c0-5.29,4.29-9.58,9.58-9.58h90.71C153.25,435.17,157.54,439.45,157.54,444.75z" class="st2"/>
  <path d="M456.38,55.89l2.78,2.76c5.95,5.9,5.98,15.51,0.07,21.46L299.18,241.26c-5.9,5.95-15.51,5.98-21.46,0.07&#xd;&#xa;&#x9;&#x9;l-2.78-2.76c-5.95-5.9-5.98-15.51-0.07-21.46L434.93,55.96C440.83,50.02,450.44,49.98,456.38,55.89z" class="st2"/>
  <path d="M440.21,51.52L454,51.47c5.29-0.02,9.59,4.26,9.61,9.55l0.31,90.71c0.02,5.29-4.26,9.59-9.55,9.61l-13.79,0.05&#xd;&#xa;&#x9;&#x9;c-5.29,0.02-9.59-4.26-9.61-9.55l-0.31-90.71C430.65,55.84,434.92,51.54,440.21,51.52z" class="st2"/>
  <path d="M353.79,75.18l-0.05-13.79c-0.02-5.29,4.26-9.59,9.55-9.61L454,51.47c5.29-0.02,9.59,4.26,9.61,9.55&#xd;&#xa;&#x9;&#x9;l0.05,13.79c0.02,5.29-4.26,9.59-9.55,9.61l-90.71,0.31C358.11,84.75,353.81,80.47,353.79,75.18z" class="st2"/>
 </g>
 <g class="st1" id="ТУДА">
  <path d="M236.87,284.29v13.79c0,5.29-4.29,9.58-9.58,9.58h-90.71c-5.29,0-9.58-4.29-9.58-9.58v-13.79&#xd;&#xa;&#x9;&#x9;c0-5.29,4.29-9.58,9.58-9.58h90.71C232.58,274.71,236.87,279,236.87,284.29z" class="st2"/>
  <path d="M50.36,464l-2.77-2.77c-5.93-5.93-5.93-15.53,0-21.46L208.2,279.16c5.93-5.93,15.53-5.93,21.46,0l2.77,2.77&#xd;&#xa;&#x9;&#x9;c5.93,5.93,5.93,15.53,0,21.46L71.82,464C65.89,469.92,56.29,469.92,50.36,464z" class="st2"/>
  <path d="M227.29,384.58H213.5c-5.29,0-9.58-4.29-9.58-9.58v-90.71c0-5.29,4.29-9.58,9.58-9.58h13.79&#xd;&#xa;&#x9;&#x9;c5.29,0,9.58,4.29,9.58,9.58V375C236.87,380.29,232.58,384.58,227.29,384.58z" class="st2"/>
  <path d="M462.36,44.04l2.78,2.76c5.95,5.9,5.98,15.51,0.07,21.46L305.16,229.42c-5.9,5.95-15.51,5.98-21.46,0.07&#xd;&#xa;&#x9;&#x9;l-2.78-2.76c-5.95-5.9-5.98-15.51-0.07-21.46L440.91,44.12C446.81,38.17,456.42,38.14,462.36,44.04z" class="st2"/>
  <path d="M285.15,125l13.79-0.05c5.29-0.02,9.59,4.26,9.61,9.55l0.31,90.71c0.02,5.29-4.26,9.59-9.55,9.61l-13.79,0.05&#xd;&#xa;&#x9;&#x9;c-5.29,0.02-9.59-4.26-9.61-9.55l-0.31-90.71C275.59,129.32,279.86,125.02,285.15,125z" class="st2"/>
  <path d="M275.96,225.33l-0.05-13.79c-0.02-5.29,4.26-9.59,9.55-9.61l90.71-0.31c5.29-0.02,9.59,4.26,9.61,9.55&#xd;&#xa;&#x9;&#x9;l0.05,13.79c0.02,5.29-4.26,9.59-9.55,9.61l-90.71,0.31C280.28,234.89,275.97,230.62,275.96,225.33z" class="st2"/>
 </g>
 <g class="st1" id="михаил_круг">
  <g class="st5">
   <circle class="st6" cx="256" r="211.66" cy="261.73"/>
   <path d="M350.18,85.13h-89.29c-2.7,0-4.89-2.19-4.89-4.89V22.92c0-2.7,2.19-4.89,4.89-4.89h89.29&#xd;&#xa;&#x9;&#x9;&#x9;c2.7,0,4.89,2.19,4.89,4.89v57.32C355.06,82.94,352.88,85.13,350.18,85.13z" class="st0"/>
   <path d="M445.99,52.94v13.79c0,5.29-4.29,9.58-9.58,9.58H345.7c-5.29,0-9.58-4.29-9.58-9.58V52.94&#xd;&#xa;&#x9;&#x9;&#x9;c0-5.29,4.29-9.58,9.58-9.58l90.71,0C441.7,43.36,445.99,47.65,445.99,52.94z" class="st7"/>
   <path d="M359.6,150.68h-14.01c-5.23,0-9.47-4.24-9.47-9.47V52.83c0-5.23,4.24-9.47,9.47-9.47h14.01&#xd;&#xa;&#x9;&#x9;&#x9;c5.23,0,9.47,4.24,9.47,9.47v88.38C369.07,146.44,364.83,150.68,359.6,150.68z" class="st7"/>
  </g>
  <path d="M262.18,37.86v24.47c0,1.69-1.37,3.06-3.06,3.06h-6.24c-1.69,0-3.06-1.37-3.06-3.06V37.86&#xd;&#xa;&#x9;&#x9;c0-1.69,1.37-3.06,3.06-3.06l6.24,0C260.81,34.81,262.18,36.17,262.18,37.86z" class="st2"/>
 </g>
 <g class="st1" id="он_звук_1_">
  <path d="M394.16,78.56l1.8,3.48c3.85,7.44,0.93,16.6-6.51,20.45L187.68,206.79c-7.44,3.85-16.6,0.93-20.45-6.51&#xd;&#xa;&#x9;&#x9;l-1.8-3.48c-3.85-7.44-0.93-16.6,6.51-20.45L373.71,72.05C381.15,68.2,390.31,71.11,394.16,78.56z" class="st2"/>
  <path d="M381.26,70.32L381.26,70.32c9.46,0,17.13,7.67,17.13,17.13v309.45c0,9.46-7.67,17.13-17.13,17.13h0&#xd;&#xa;&#x9;&#x9;c-9.46,0-17.13-7.67-17.13-17.13V87.44C364.13,77.98,371.8,70.32,381.26,70.32z" class="st2"/>
  <path d="M396.59,402.63l-1.79,3.56c-3.76,7.47-12.86,10.47-20.33,6.72l-201.89-101.6&#xd;&#xa;&#x9;&#x9;c-7.47-3.76-10.47-12.86-6.72-20.33l1.79-3.56c3.76-7.47,12.86-10.47,20.33-6.72l201.89,101.6&#xd;&#xa;&#x9;&#x9;C397.34,386.07,400.35,395.17,396.59,402.63z" class="st2"/>
  <path d="M187.27,308.47h-12.8c-5.93,0-10.73-4.8-10.73-10.73l0-107.31c0-5.93,4.8-10.73,10.73-10.73h12.8&#xd;&#xa;&#x9;&#x9;c5.93,0,10.73,4.8,10.73,10.73l0,107.31C198,303.67,193.2,308.47,187.27,308.47z" class="st2"/>
  <path d="M198,283.03v16.63c0,4.87-3.95,8.82-8.82,8.82h-69.3c-4.87,0-8.82-3.95-8.82-8.82v-16.63&#xd;&#xa;&#x9;&#x9;c0-4.87,3.95-8.82,8.82-8.82h69.3C194.05,274.21,198,278.16,198,283.03z" class="st2"/>
  <path d="M131.3,308.47h-12.8c-5.93,0-10.73-4.8-10.73-10.73l0-107.31c0-5.93,4.8-10.73,10.73-10.73h12.8&#xd;&#xa;&#x9;&#x9;c5.93,0,10.73,4.8,10.73,10.73v107.31C142.03,303.67,137.23,308.47,131.3,308.47z" class="st2"/>
  <path d="M194.71,188.52v16.63c0,4.87-3.95,8.82-8.82,8.82l-69.3,0c-4.87,0-8.82-3.95-8.82-8.82v-16.63&#xd;&#xa;&#x9;&#x9;c0-4.87,3.95-8.82,8.82-8.82l69.3,0C190.76,179.7,194.71,183.65,194.71,188.52z" class="st2"/>
  <ellipse class="st8" ry="23.48" cx="395.45" rx="21.16" cy="244.09"/>
 </g>
 <g class="st1" id="не_он_звук">
  <g class="st5" id="он_звук">
   <path d="M394.16,78.81l1.8,3.48c3.85,7.44,0.93,16.6-6.51,20.45L187.68,207.05c-7.44,3.85-16.6,0.93-20.45-6.51&#xd;&#xa;&#x9;&#x9;&#x9;l-1.8-3.48c-3.85-7.44-0.93-16.6,6.51-20.45L373.71,72.3C381.15,68.45,390.31,71.37,394.16,78.81z" class="st7"/>
   <path d="M381.26,70.57L381.26,70.57c9.46,0,17.13,7.67,17.13,17.13v309.45c0,9.46-7.67,17.13-17.13,17.13h0&#xd;&#xa;&#x9;&#x9;&#x9;c-9.46,0-17.13-7.67-17.13-17.13V87.7C364.13,78.24,371.8,70.57,381.26,70.57z" class="st7"/>
   <path d="M396.59,402.89l-1.79,3.56c-3.76,7.47-12.86,10.47-20.33,6.72l-201.89-101.6&#xd;&#xa;&#x9;&#x9;&#x9;c-7.47-3.76-10.47-12.86-6.72-20.33l1.79-3.56c3.76-7.47,12.86-10.47,20.33-6.72l201.89,101.6&#xd;&#xa;&#x9;&#x9;&#x9;C397.34,386.32,400.35,395.42,396.59,402.89z" class="st7"/>
   <path d="M187.27,308.73h-12.8c-5.93,0-10.73-4.8-10.73-10.73l0-107.31c0-5.93,4.8-10.73,10.73-10.73h12.8&#xd;&#xa;&#x9;&#x9;&#x9;c5.93,0,10.73,4.8,10.73,10.73L198,298C198,303.92,193.2,308.73,187.27,308.73z" class="st7"/>
   <path d="M198,283.28v16.63c0,4.87-3.95,8.82-8.82,8.82h-69.3c-4.87,0-8.82-3.95-8.82-8.82v-16.63&#xd;&#xa;&#x9;&#x9;&#x9;c0-4.87,3.95-8.82,8.82-8.82h69.3C194.05,274.47,198,278.42,198,283.28z" class="st7"/>
   <path d="M131.3,308.73h-12.8c-5.93,0-10.73-4.8-10.73-10.73l0-107.31c0-5.93,4.8-10.73,10.73-10.73h12.8&#xd;&#xa;&#x9;&#x9;&#x9;c5.93,0,10.73,4.8,10.73,10.73V298C142.03,303.92,137.23,308.73,131.3,308.73z" class="st7"/>
   <path d="M194.71,188.77v16.63c0,4.87-3.95,8.82-8.82,8.82h-69.3c-4.87,0-8.82-3.95-8.82-8.82v-16.63&#xd;&#xa;&#x9;&#x9;&#x9;c0-4.87,3.95-8.82,8.82-8.82h69.3C190.76,179.95,194.71,183.9,194.71,188.77z" class="st7"/>
   <ellipse class="st9" ry="23.48" cx="395.45" rx="21.16" cy="244.34"/>
  </g>
  <path d="M486.58,403.24l-0.37,0.55c-5.17,7.71-15.6,9.77-23.31,4.6L50.62,132.07c-7.71-5.17-9.77-15.6-4.6-23.31&#xd;&#xa;&#x9;&#x9;l0.37-0.55c5.17-7.71,15.6-9.77,23.31-4.6l412.28,276.32C489.69,385.1,491.75,395.53,486.58,403.24z" class="st2"/>
 </g>
 <g class="st1" id="лупа">
  <circle class="st10" cx="200.16" r="104.9" cy="164.26"/>
  <path d="M250.05,250.58l3.02-2.49c6.46-5.33,16.03-4.42,21.36,2.05l144.56,175.19c5.33,6.46,4.42,16.03-2.05,21.36&#xd;&#xa;&#x9;&#x9;l-3.02,2.49c-6.46,5.33-16.03,4.42-21.36-2.05L248,271.93C242.67,265.47,243.58,255.91,250.05,250.58z" class="st2"/>
  <path d="M153.21,172.22v-15.94c0-5.06,4.1-9.16,9.16-9.16h75.58c5.06,0,9.16,4.1,9.16,9.16v15.94&#xd;&#xa;&#x9;&#x9;c0,5.06-4.1,9.16-9.16,9.16h-75.58C157.31,181.39,153.21,177.29,153.21,172.22z" class="st2"/>
 </g>
 <g class="st1" id="за_лупа">
  <circle class="st10" cx="200.16" r="104.9" cy="164.26"/>
  <path d="M250.05,250.58l3.02-2.49c6.46-5.33,16.03-4.42,21.36,2.05l144.56,175.19c5.33,6.46,4.42,16.03-2.05,21.36&#xd;&#xa;&#x9;&#x9;l-3.02,2.49c-6.46,5.33-16.03,4.42-21.36-2.05L248,271.93C242.67,265.47,243.58,255.91,250.05,250.58z" class="st2"/>
  <path d="M153.21,172.22v-15.94c0-5.06,4.1-9.16,9.16-9.16h75.58c5.06,0,9.16,4.1,9.16,9.16v15.94&#xd;&#xa;&#x9;&#x9;c0,5.06-4.1,9.16-9.16,9.16h-75.58C157.31,181.39,153.21,177.29,153.21,172.22z" class="st2"/>
  <path d="M192.19,117.31h15.94c5.06,0,9.16,4.1,9.16,9.16v75.58c0,5.06-4.1,9.16-9.16,9.16h-15.94&#xd;&#xa;&#x9;&#x9;c-5.06,0-9.16-4.1-9.16-9.16v-75.58C183.03,121.41,187.13,117.31,192.19,117.31z" class="st2"/>
 </g>
 <g class="st1" id="вверху">
  <circle class="st10" cx="256" r="200.49" cy="256"/>
  <g class="st5">
   <path d="M344.86,273.4l-8.18,8.18c-4.43,4.43-11.61,4.43-16.04,0l-81.1-81.1c-4.43-4.43-4.43-11.61,0-16.04l8.18-8.18&#xd;&#xa;&#x9;&#x9;&#x9;c4.43-4.43,11.61-4.43,16.04,0l81.1,81.1C349.29,261.79,349.29,268.97,344.86,273.4z" class="st7"/>
   <path d="M264.28,176.26l8.18,8.18c4.43,4.43,4.43,11.61,0,16.04l-81.1,81.1c-4.43,4.43-11.61,4.43-16.04,0l-8.18-8.18&#xd;&#xa;&#x9;&#x9;&#x9;c-4.43-4.43-4.43-11.61,0-16.04l81.1-81.1C252.66,171.83,259.85,171.83,264.28,176.26z" class="st7"/>
  </g>
 </g>
 <g id="внизу">
  <g>
   <path d="M167.14,205.89l8.18-8.18c4.43-4.43,11.61-4.43,16.04,0l81.09,81.1c4.43,4.43,4.43,11.61,0,16.04l-8.18,8.18&#xd;&#xa;&#x9;&#x9;&#x9;c-4.43,4.43-11.61,4.43-16.04,0l-81.09-81.1C162.71,217.5,162.71,210.32,167.14,205.89z" class="st7"/>
   <path d="M247.72,303.03l-8.18-8.18c-4.43-4.43-4.43-11.61,0-16.04l81.1-81.09c4.43-4.43,11.61-4.43,16.04,0l8.18,8.18&#xd;&#xa;&#x9;&#x9;&#x9;c4.43,4.43,4.43,11.61,0,16.04l-81.1,81.09C259.33,307.46,252.15,307.46,247.72,303.03z" class="st7"/>
  </g>
  <circle class="st6" cx="256" r="200.49" cy="256"/>
 </g>
 <g class="st1" id="влево">
  <g class="st5">
   <path d="M216.95,339.23l-8.18-8.18c-4.43-4.43-4.43-11.61,0-16.04l81.09-81.11c4.43-4.43,11.61-4.43,16.04,0&#xd;&#xa;&#x9;&#x9;&#x9;l8.18,8.18c4.43,4.43,4.43,11.61,0,16.04L233,339.23C228.57,343.66,221.39,343.66,216.95,339.23z" class="st7"/>
   <path d="M314.08,258.64l-8.18,8.18c-4.43,4.43-11.61,4.43-16.04,0l-81.11-81.09c-4.43-4.43-4.43-11.61,0-16.04&#xd;&#xa;&#x9;&#x9;&#x9;l8.18-8.18c4.43-4.43,11.61-4.43,16.04,0l81.11,81.09C318.51,247.02,318.51,254.2,314.08,258.64z" class="st7"/>
  </g>
  <circle class="st10" cx="256" r="200.49" cy="256"/>
 </g>
 <g class="st1" id="не_влево">
  <g class="st5">
   <path d="M286.15,160.93l8.19,8.17c4.44,4.42,4.45,11.61,0.02,16.04l-80.97,81.22c-4.42,4.44-11.61,4.45-16.04,0.02&#xd;&#xa;&#x9;&#x9;&#x9;l-8.19-8.17c-4.44-4.42-4.45-11.61-0.02-16.04l80.97-81.22C274.52,156.52,281.71,156.51,286.15,160.93z" class="st7"/>
   <path d="M189.13,241.66l8.17-8.19c4.42-4.44,11.61-4.45,16.04-0.02l81.22,80.97c4.44,4.42,4.45,11.61,0.02,16.04&#xd;&#xa;&#x9;&#x9;&#x9;l-8.17,8.19c-4.42,4.44-11.61,4.45-16.04,0.02l-81.22-80.97C184.71,253.28,184.7,246.1,189.13,241.66z" class="st7"/>
  </g>
  <circle class="st10" cx="256" r="200.49" cy="256"/>
 </g>
</svg>
